<svg width="20" height="16" viewBox="0 0 20 16" fill="none" xmlns="http://www.w3.org/2000/svg">
<path d="M16.9231 6.54545C16.9231 6.73834 16.842 6.92332 16.6978 7.05971C16.5535 7.1961 16.3579 7.27273 16.1538 7.27273H12.3077C12.1037 7.27273 11.908 7.1961 11.7638 7.05971C11.6195 6.92332 11.5385 6.73834 11.5385 6.54545C11.5385 6.35257 11.6195 6.16759 11.7638 6.0312C11.908 5.8948 12.1037 5.81818 12.3077 5.81818H16.1538C16.3579 5.81818 16.5535 5.8948 16.6978 6.0312C16.842 6.16759 16.9231 6.35257 16.9231 6.54545ZM16.1538 8.72727H12.3077C12.1037 8.72727 11.908 8.8039 11.7638 8.94029C11.6195 9.07668 11.5385 9.26166 11.5385 9.45455C11.5385 9.64743 11.6195 9.83242 11.7638 9.96881C11.908 10.1052 12.1037 10.1818 12.3077 10.1818H16.1538C16.3579 10.1818 16.5535 10.1052 16.6978 9.96881C16.842 9.83242 16.9231 9.64743 16.9231 9.45455C16.9231 9.26166 16.842 9.07668 16.6978 8.94029C16.5535 8.8039 16.3579 8.72727 16.1538 8.72727ZM20 1.45455V14.5455C20 14.9312 19.8379 15.3012 19.5494 15.574C19.2609 15.8468 18.8696 16 18.4615 16H1.53846C1.13044 16 0.739122 15.8468 0.450605 15.574C0.162087 15.3012 0 14.9312 0 14.5455V1.45455C0 1.06878 0.162087 0.698807 0.450605 0.426026C0.739122 0.153246 1.13044 0 1.53846 0H18.4615C18.8696 0 19.2609 0.153246 19.5494 0.426026C19.8379 0.698807 20 1.06878 20 1.45455ZM18.4615 14.5455V1.45455H1.53846V14.5455H18.4615ZM10.7442 11.4545C10.7952 11.6414 10.7656 11.8398 10.662 12.006C10.5583 12.1722 10.389 12.2927 10.1913 12.3409C9.99371 12.3891 9.78391 12.3611 9.60809 12.2631C9.43227 12.1651 9.30485 12.005 9.25385 11.8182C9.00096 10.8855 7.99808 10.1818 6.92212 10.1818C5.84615 10.1818 4.84423 10.8855 4.59038 11.8182C4.53938 12.005 4.41196 12.1651 4.23614 12.2631C4.06033 12.3611 3.85052 12.3891 3.65288 12.3409C3.45525 12.2927 3.28597 12.1722 3.18228 12.006C3.07859 11.8398 3.049 11.6414 3.1 11.4545C3.34962 10.5761 3.93967 9.81868 4.75288 9.33273C4.32074 8.92658 4.02587 8.40826 3.90566 7.84348C3.78545 7.2787 3.84531 6.69289 4.07766 6.16032C4.31001 5.62774 4.70437 5.17238 5.21077 4.85196C5.71716 4.53154 6.31278 4.36049 6.92212 4.36049C7.53145 4.36049 8.12707 4.53154 8.63346 4.85196C9.13986 5.17238 9.53422 5.62774 9.76657 6.16032C9.99892 6.69289 10.0588 7.2787 9.93857 7.84348C9.81836 8.40826 9.52349 8.92658 9.09135 9.33273C9.90545 9.81798 10.4951 10.5757 10.7442 11.4545ZM6.92308 8.72727C7.22736 8.72727 7.5248 8.64196 7.7778 8.48214C8.0308 8.32231 8.22799 8.09514 8.34443 7.82936C8.46087 7.56357 8.49134 7.27111 8.43198 6.98896C8.37262 6.70681 8.22609 6.44763 8.01093 6.24421C7.79578 6.04079 7.52165 5.90225 7.22322 5.84613C6.92478 5.79001 6.61545 5.81881 6.33433 5.9289C6.05322 6.03899 5.81294 6.22543 5.64389 6.46463C5.47484 6.70382 5.38462 6.98505 5.38462 7.27273C5.38462 7.6585 5.5467 8.02847 5.83522 8.30125C6.12374 8.57403 6.51505 8.72727 6.92308 8.72727Z" fill="white"/>
</svg>
