<svg width="20" height="20" viewBox="0 0 20 20" fill="none" xmlns="http://www.w3.org/2000/svg">
<path d="M19.6153 4.06627L19.1674 3.81231C19.2199 3.53905 19.2199 3.25853 19.1674 2.98527L19.6153 2.73131C19.7919 2.63115 19.9208 2.46616 19.9736 2.27264C20.0264 2.07912 19.9988 1.87292 19.8969 1.69939C19.7949 1.52587 19.6269 1.39924 19.4299 1.34737C19.2329 1.29549 19.023 1.32261 18.8464 1.42277L18.3975 1.67768C18.1827 1.49665 17.9358 1.35614 17.669 1.26322V0.755287C17.669 0.554972 17.588 0.362862 17.4438 0.221218C17.2996 0.0795746 17.104 0 16.9001 0C16.6962 0 16.5006 0.0795746 16.3564 0.221218C16.2122 0.362862 16.1312 0.554972 16.1312 0.755287V1.26322C15.8645 1.35614 15.6175 1.49665 15.4027 1.67768L14.9539 1.42277C14.8664 1.37318 14.7699 1.34099 14.6697 1.32806C14.5696 1.31512 14.4679 1.32168 14.3703 1.34737C14.2728 1.37305 14.1813 1.41736 14.1012 1.47776C14.0211 1.53816 13.9539 1.61348 13.9034 1.69939C13.8529 1.78531 13.8201 1.88016 13.807 1.97852C13.7938 2.07688 13.8005 2.17682 13.8266 2.27264C13.8528 2.36846 13.8979 2.45829 13.9594 2.53698C14.0209 2.61568 14.0975 2.68171 14.185 2.73131L14.6329 2.98527C14.5803 3.25853 14.5803 3.53905 14.6329 3.81231L14.185 4.06627C14.0383 4.14937 13.9237 4.27769 13.8589 4.43134C13.794 4.58498 13.7826 4.75535 13.8264 4.916C13.8703 5.07665 13.9668 5.21861 14.1012 5.31983C14.2355 5.42106 14.4001 5.47589 14.5694 5.47583C14.7044 5.47624 14.8371 5.44137 14.9539 5.37481L15.4027 5.1199C15.6175 5.30093 15.8645 5.44144 16.1312 5.53436V6.04229C16.1312 6.24261 16.2122 6.43472 16.3564 6.57636C16.5006 6.718 16.6962 6.79758 16.9001 6.79758C17.104 6.79758 17.2996 6.718 17.4438 6.57636C17.588 6.43472 17.669 6.24261 17.669 6.04229V5.53436C17.9358 5.44144 18.1827 5.30093 18.3975 5.1199L18.8464 5.37481C18.9631 5.44137 19.0958 5.47624 19.2308 5.47583C19.4001 5.47589 19.5647 5.42106 19.6991 5.31983C19.8334 5.21861 19.93 5.07665 19.9738 4.916C20.0176 4.75535 20.0062 4.58498 19.9414 4.43134C19.8766 4.27769 19.7619 4.14937 19.6153 4.06627ZM16.1312 3.39879C16.1312 3.24941 16.1763 3.10338 16.2608 2.97917C16.3453 2.85497 16.4654 2.75816 16.6059 2.701C16.7464 2.64383 16.901 2.62887 17.0501 2.65802C17.1993 2.68716 17.3363 2.75909 17.4438 2.86472C17.5513 2.97035 17.6246 3.10493 17.6542 3.25144C17.6839 3.39795 17.6687 3.54981 17.6105 3.68783C17.5523 3.82584 17.4537 3.9438 17.3273 4.02679C17.2009 4.10978 17.0522 4.15408 16.9001 4.15408C16.6962 4.15408 16.5006 4.0745 16.3564 3.93286C16.2122 3.79121 16.1312 3.5991 16.1312 3.39879ZM18.9521 7.94089C18.751 7.97395 18.5715 8.08414 18.4531 8.2472C18.3346 8.41026 18.287 8.61286 18.3206 8.81042C18.3987 9.26842 18.4379 9.73199 18.4379 10.1964C18.4397 12.2302 17.6788 14.1933 16.3004 15.7109C15.4429 14.4902 14.2371 13.5459 12.8346 12.9966C13.588 12.4137 14.1377 11.6148 14.4073 10.7108C14.677 9.80684 14.6532 8.84279 14.3392 7.95274C14.0252 7.06268 13.4367 6.29086 12.6554 5.74461C11.8742 5.19835 10.9391 4.90481 9.98015 4.90481C9.02121 4.90481 8.08611 5.19835 7.30487 5.74461C6.52364 6.29086 5.93511 7.06268 5.62113 7.95274C5.30715 8.84279 5.28333 9.80684 5.55297 10.7108C5.82262 11.6148 6.37233 12.4137 7.12566 12.9966C5.72323 13.5459 4.51744 14.4902 3.65991 15.7109C2.57839 14.5137 1.87193 13.0352 1.62548 11.453C1.37902 9.87085 1.60306 8.25243 2.27066 6.79236C2.93826 5.33228 4.02099 4.09272 5.38867 3.22272C6.75635 2.35272 8.35075 1.88931 9.98015 1.88822C10.4529 1.88814 10.9248 1.92667 11.3911 2.0034C11.5913 2.03443 11.7959 1.98655 11.9603 1.87017C12.1248 1.7538 12.2358 1.57834 12.2692 1.38197C12.3027 1.1856 12.2558 0.984194 12.1389 0.821573C12.022 0.658952 11.8444 0.548267 11.6448 0.513595C9.55673 0.168538 7.41105 0.484266 5.51757 1.41519C3.62409 2.34612 2.08077 3.84408 1.11046 5.69278C0.140145 7.54148 -0.20696 9.64527 0.119261 11.7004C0.445482 13.7555 1.42815 15.6556 2.92538 17.1264C4.42261 18.5971 6.35693 19.5624 8.44905 19.8828C10.5412 20.2033 12.6828 19.8623 14.5648 18.9092C16.4468 17.956 17.9717 16.44 18.9194 14.58C19.8671 12.72 20.1885 10.6123 19.8373 8.56117C19.8036 8.36362 19.6915 8.18728 19.5255 8.07096C19.3595 7.95464 19.1532 7.90785 18.9521 7.94089ZM6.90461 9.44108C6.90461 8.84356 7.08499 8.25945 7.42293 7.76262C7.76088 7.2658 8.24121 6.87857 8.80319 6.64991C9.36518 6.42124 9.98356 6.36141 10.5802 6.47799C11.1768 6.59456 11.7248 6.88229 12.1549 7.30481C12.585 7.72732 12.8779 8.26564 12.9966 8.85169C13.1153 9.43773 13.0544 10.0452 12.8216 10.5972C12.5888 11.1493 12.1946 11.6211 11.6888 11.9531C11.1831 12.285 10.5884 12.4622 9.98015 12.4622C9.16447 12.4622 8.38219 12.1439 7.80541 11.5774C7.22864 11.0108 6.90461 10.2423 6.90461 9.44108ZM4.79786 16.7579C5.35409 15.9034 6.12035 15.2002 7.02602 14.713C7.93168 14.2259 8.94761 13.9706 9.98015 13.9706C11.0127 13.9706 12.0286 14.2259 12.9343 14.713C13.84 15.2002 14.6062 15.9034 15.1624 16.7579C13.6807 17.8899 11.8572 18.5045 9.98015 18.5045C8.10309 18.5045 6.27957 17.8899 4.79786 16.7579Z" fill="white"/>
</svg>
