<svg width="24" height="24" viewBox="0 0 24 24" fill="none" xmlns="http://www.w3.org/2000/svg">
<path d="M12 6.75V8.25" stroke="white" stroke-width="2" stroke-linecap="round" stroke-linejoin="round"/>
<path d="M12 15.75V17.25" stroke="white" stroke-width="2" stroke-linecap="round" stroke-linejoin="round"/>
<path d="M12 21C16.9706 21 21 16.9706 21 12C21 7.02944 16.9706 3 12 3C7.02944 3 3 7.02944 3 12C3 16.9706 7.02944 21 12 21Z" stroke="white" stroke-width="2" stroke-linecap="round" stroke-linejoin="round"/>
<path d="M9.75 15.75H13.125C13.6223 15.75 14.0992 15.5525 14.4508 15.2008C14.8025 14.8492 15 14.3723 15 13.875C15 13.3777 14.8025 12.9008 14.4508 12.5492C14.0992 12.1975 13.6223 12 13.125 12H10.875C10.3777 12 9.90081 11.8025 9.54917 11.4508C9.19754 11.0992 9 10.6223 9 10.125C9 9.62772 9.19754 9.15081 9.54917 8.79917C9.90081 8.44754 10.3777 8.25 10.875 8.25H14.25" stroke="white" stroke-width="2" stroke-linecap="round" stroke-linejoin="round"/>
</svg>
