<svg width="18" height="22" viewBox="0 0 18 22" fill="none" xmlns="http://www.w3.org/2000/svg">
<path d="M13.0909 11.4074C13.0909 11.6235 13.0047 11.8308 12.8513 11.9836C12.6978 12.1364 12.4897 12.2222 12.2727 12.2222H5.72727C5.51028 12.2222 5.30217 12.1364 5.14873 11.9836C4.99529 11.8308 4.90909 11.6235 4.90909 11.4074C4.90909 11.1913 4.99529 10.9841 5.14873 10.8312C5.30217 10.6784 5.51028 10.5926 5.72727 10.5926H12.2727C12.4897 10.5926 12.6978 10.6784 12.8513 10.8312C13.0047 10.9841 13.0909 11.1913 13.0909 11.4074ZM12.2727 13.8519H5.72727C5.51028 13.8519 5.30217 13.9377 5.14873 14.0905C4.99529 14.2433 4.90909 14.4506 4.90909 14.6667C4.90909 14.8828 4.99529 15.09 5.14873 15.2428C5.30217 15.3956 5.51028 15.4815 5.72727 15.4815H12.2727C12.4897 15.4815 12.6978 15.3956 12.8513 15.2428C13.0047 15.09 13.0909 14.8828 13.0909 14.6667C13.0909 14.4506 13.0047 14.2433 12.8513 14.0905C12.6978 13.9377 12.4897 13.8519 12.2727 13.8519ZM18 3.25926V18.7407C18 19.6051 17.6552 20.4342 17.0414 21.0454C16.4277 21.6566 15.5953 22 14.7273 22H3.27273C2.40475 22 1.57231 21.6566 0.958559 21.0454C0.344804 20.4342 0 19.6051 0 18.7407V3.25926C0 2.82705 0.172402 2.41255 0.47928 2.10694C0.786157 1.80132 1.20237 1.62963 1.63636 1.62963H3.27273V0.814815C3.27273 0.598712 3.35893 0.391461 3.51237 0.238654C3.66581 0.0858463 3.87391 0 4.09091 0C4.3079 0 4.51601 0.0858463 4.66945 0.238654C4.82289 0.391461 4.90909 0.598712 4.90909 0.814815V1.62963H8.18182V0.814815C8.18182 0.598712 8.26802 0.391461 8.42146 0.238654C8.5749 0.0858463 8.783 0 9 0C9.217 0 9.4251 0.0858463 9.57854 0.238654C9.73198 0.391461 9.81818 0.598712 9.81818 0.814815V1.62963H13.0909V0.814815C13.0909 0.598712 13.1771 0.391461 13.3305 0.238654C13.484 0.0858463 13.6921 0 13.9091 0C14.1261 0 14.3342 0.0858463 14.4876 0.238654C14.6411 0.391461 14.7273 0.598712 14.7273 0.814815V1.62963H16.3636C16.7976 1.62963 17.2138 1.80132 17.5207 2.10694C17.8276 2.41255 18 2.82705 18 3.25926ZM16.3636 3.25926H14.7273V4.07407C14.7273 4.29018 14.6411 4.49743 14.4876 4.65023C14.3342 4.80304 14.1261 4.88889 13.9091 4.88889C13.6921 4.88889 13.484 4.80304 13.3305 4.65023C13.1771 4.49743 13.0909 4.29018 13.0909 4.07407V3.25926H9.81818V4.07407C9.81818 4.29018 9.73198 4.49743 9.57854 4.65023C9.4251 4.80304 9.217 4.88889 9 4.88889C8.783 4.88889 8.5749 4.80304 8.42146 4.65023C8.26802 4.49743 8.18182 4.29018 8.18182 4.07407V3.25926H4.90909V4.07407C4.90909 4.29018 4.82289 4.49743 4.66945 4.65023C4.51601 4.80304 4.3079 4.88889 4.09091 4.88889C3.87391 4.88889 3.66581 4.80304 3.51237 4.65023C3.35893 4.49743 3.27273 4.29018 3.27273 4.07407V3.25926H1.63636V18.7407C1.63636 19.1729 1.80877 19.5874 2.11564 19.8931C2.42252 20.1987 2.83874 20.3704 3.27273 20.3704H14.7273C15.1613 20.3704 15.5775 20.1987 15.8844 19.8931C16.1912 19.5874 16.3636 19.1729 16.3636 18.7407V3.25926Z" fill="white"/>
</svg>
