<svg width="20" height="20" viewBox="0 0 20 20" fill="none" xmlns="http://www.w3.org/2000/svg">
<path d="M10.8806 0.255671C10.6734 0.237604 10.4647 0.262817 10.2678 0.329711C10.0709 0.396604 9.89001 0.503715 9.7367 0.644243C9.58339 0.78477 9.46097 0.955642 9.37723 1.14601C9.29349 1.33637 9.25025 1.54208 9.25025 1.75005V5.56286C9.24766 5.91665 9.37131 6.25978 9.59899 6.53059C9.82667 6.8014 10.1435 6.98214 10.4924 7.04036C11.05 7.13391 11.5698 7.38312 11.9919 7.75926C12.414 8.13541 12.7213 8.62317 12.8782 9.16634C13.0351 9.70951 13.0354 10.286 12.8789 10.8293C12.7224 11.3726 12.4156 11.8606 11.9938 12.2371C11.572 12.6136 11.0524 12.8632 10.4949 12.9572C9.9374 13.0513 9.36467 12.9858 8.84274 12.7685C8.32081 12.5511 7.87092 12.1907 7.54493 11.7287C7.21895 11.2668 7.03013 10.7221 7.00025 10.1575C6.96182 9.38692 7.11932 8.7513 7.469 8.25817C7.67452 7.97149 7.77143 7.62107 7.7424 7.26953C7.71338 6.91798 7.56032 6.58821 7.31057 6.33911L4.72119 3.6888C4.5736 3.54119 4.39682 3.42602 4.20216 3.35065C4.00751 3.27527 3.79927 3.24135 3.59076 3.25106C3.38225 3.26076 3.17806 3.31388 2.99125 3.40701C2.80444 3.50015 2.63912 3.63125 2.50588 3.79192C0.943043 5.66503 0.142304 8.05766 0.262852 10.4941C0.383399 12.9306 1.4164 15.2325 3.1565 16.9422C4.976 18.7474 7.43722 19.7572 10.0003 19.75H10.1399C12.6754 19.7069 15.095 18.6804 16.888 16.8872C18.6811 15.094 19.7073 12.6743 19.7503 10.1388C19.8206 5.04817 15.9243 0.707546 10.8806 0.255671ZM3.65525 4.74442L6.24369 7.38723V7.39286C5.85947 7.94424 5.61819 8.58239 5.5415 9.25005H1.784C1.93421 7.59262 2.58708 6.02061 3.65525 4.74442ZM1.78494 10.75H5.56307C5.7186 11.6716 6.15718 12.5218 6.81792 13.1827C7.47866 13.8436 8.32878 14.2824 9.25025 14.4382V18.2163C7.32936 18.0408 5.53067 17.1978 4.16683 15.8338C2.80298 14.4698 1.96019 12.671 1.78494 10.75ZM15.8259 15.8257C14.4674 17.1936 12.6703 18.0391 10.7503 18.2135V14.4382C11.6194 14.2935 12.4262 13.8945 13.0687 13.2916C13.6829 12.7193 14.1249 11.9866 14.3445 11.1763C14.5641 10.366 14.5527 9.51045 14.3115 8.70631C14.0703 7.90217 13.6089 7.18154 12.9796 6.62587C12.3503 6.07021 11.5781 5.70167 10.7503 5.56192V1.75005C15.0178 2.13255 18.3131 5.80755 18.2503 10.1172C18.2208 12.2641 17.3503 14.3137 15.8259 15.8257Z" fill="white"/>
</svg>
