<svg width="24" height="24" viewBox="0 0 24 24" fill="none" xmlns="http://www.w3.org/2000/svg">
<g clip-path="url(#clip0_333_13916)">
<path d="M3.55273 19.4905L8.59648 5.60613C8.63965 5.48733 8.71216 5.38136 8.80726 5.29807C8.90236 5.21479 9.01697 5.1569 9.14044 5.12977C9.2639 5.10265 9.39222 5.10717 9.51348 5.14292C9.63473 5.17867 9.74498 5.24449 9.83398 5.33426L18.6652 14.1655C18.755 14.2545 18.8208 14.3648 18.8566 14.486C18.8923 14.6073 18.8968 14.7356 18.8697 14.859C18.8426 14.9825 18.7847 15.0971 18.7014 15.1922C18.6181 15.2873 18.5122 15.3598 18.3934 15.403L4.50898 20.4468C4.3754 20.4978 4.2299 20.5091 4.09004 20.4793C3.95018 20.4495 3.82195 20.3798 3.72083 20.2787C3.61971 20.1775 3.55003 20.0493 3.5202 19.9094C3.49037 19.7696 3.50167 19.6241 3.55273 19.4905V19.4905Z" stroke="white" stroke-width="2" stroke-linecap="round" stroke-linejoin="round"/>
<path d="M15.75 6.75C15.75 6.75 15.75 4.5 18 4.5C20.25 4.5 20.25 2.25 20.25 2.25" stroke="white" stroke-width="2" stroke-linecap="round" stroke-linejoin="round"/>
<path d="M9.60039 18.6004L5.40039 14.4004" stroke="white" stroke-width="2" stroke-linecap="round" stroke-linejoin="round"/>
<path d="M13.5 1.5V3.75" stroke="white" stroke-width="2" stroke-linecap="round" stroke-linejoin="round"/>
<path d="M20.25 10.5L21.75 12" stroke="white" stroke-width="2" stroke-linecap="round" stroke-linejoin="round"/>
<path d="M20.25 7.5L22.5 6.75" stroke="white" stroke-width="2" stroke-linecap="round" stroke-linejoin="round"/>
<path d="M7.2002 9.4502L14.5502 16.8002" stroke="white" stroke-width="2" stroke-linecap="round" stroke-linejoin="round"/>
</g>
<defs>
<clipPath id="clip0_333_13916">
<rect width="24" height="24" fill="white"/>
</clipPath>
</defs>
</svg>
